<svg width="35" height="34" viewBox="0 0 35 34" fill="none" xmlns="http://www.w3.org/2000/svg">
<path d="M22.2602 19.8243H21.1445L20.7491 19.443C22.1811 17.7822 22.968 15.6619 22.9664 13.469C22.9664 11.6534 22.428 9.87862 21.4193 8.36901C20.4106 6.85939 18.9769 5.68279 17.2995 4.98799C15.6221 4.29319 13.7764 4.1114 11.9956 4.46561C10.2149 4.81981 8.57924 5.69411 7.29542 6.97793C6.0116 8.26175 5.1373 9.89744 4.7831 11.6781C4.42889 13.4589 4.61068 15.3046 5.30548 16.982C6.00028 18.6594 7.17688 20.0931 8.6865 21.1018C10.1961 22.1105 11.9709 22.6489 13.7865 22.6489C16.0603 22.6489 18.1505 21.8156 19.7605 20.4316L20.1418 20.827V21.9427L27.2032 28.99L29.3075 26.8857L22.2602 19.8243ZM13.7865 19.8243C10.27 19.8243 7.43127 16.9856 7.43127 13.469C7.43127 9.95247 10.27 7.11378 13.7865 7.11378C17.3031 7.11378 20.1418 9.95247 20.1418 13.469C20.1418 16.9856 17.3031 19.8243 13.7865 19.8243Z" fill="#121212"/>
</svg>
