<svg width="35" height="34" viewBox="0 0 35 34" fill="none" xmlns="http://www.w3.org/2000/svg">
<path d="M17.1633 19.8242C15.9864 19.8242 14.9861 19.4123 14.1622 18.5885C13.3384 17.7646 12.9265 16.7643 12.9265 15.5874V7.11367C12.9265 5.93677 13.3384 4.93641 14.1622 4.11258C14.9861 3.28875 15.9864 2.87683 17.1633 2.87683C18.3402 2.87683 19.3406 3.28875 20.1644 4.11258C20.9883 4.93641 21.4002 5.93677 21.4002 7.11367V15.5874C21.4002 16.7643 20.9883 17.7646 20.1644 18.5885C19.3406 19.4123 18.3402 19.8242 17.1633 19.8242ZM15.7511 28.2979V25.3674C13.5856 25.0614 11.7322 24.1434 10.1909 22.6135C8.64965 21.0835 7.71377 19.224 7.3833 17.0349C7.33622 16.6348 7.44215 16.2935 7.70106 16.011C7.95998 15.7286 8.28951 15.5874 8.68966 15.5874C9.08981 15.5874 9.42546 15.7229 9.69662 15.9941C9.96777 16.2653 10.15 16.6004 10.2432 16.9996C10.5727 18.6473 11.3909 20.0007 12.6977 21.0599C14.0045 22.1192 15.4931 22.6488 17.1633 22.6488C18.8581 22.6488 20.3527 22.1135 21.6473 21.043C22.9419 19.9725 23.754 18.6247 24.0835 16.9996C24.1777 16.5995 24.3603 16.2643 24.6315 15.9941C24.9026 15.7239 25.2378 15.5883 25.637 15.5874C26.0362 15.5864 26.3658 15.7276 26.6256 16.011C26.8855 16.2944 26.9914 16.6357 26.9434 17.0349C26.6139 19.1769 25.6841 21.0246 24.1541 22.5781C22.6242 24.1317 20.7647 25.0614 18.5756 25.3674V28.2979C18.5756 28.698 18.44 29.0337 18.1689 29.3048C17.8977 29.576 17.5625 29.7111 17.1633 29.7102C16.7641 29.7092 16.429 29.5736 16.1578 29.3034C15.8866 29.0332 15.7511 28.698 15.7511 28.2979Z" fill="#121212"/>
</svg>
