<svg width="31" height="28" viewBox="0 0 31 28" fill="none" xmlns="http://www.w3.org/2000/svg">
<path fill-rule="evenodd" clip-rule="evenodd" d="M9.20845 3.38913C9.58552 1.53904 11.2322 0.229858 13.1176 0.229858H17.733C19.6184 0.229858 21.2637 1.53904 21.6422 3.38913C21.6839 3.59285 21.7929 3.77662 21.9518 3.91085C22.1106 4.04509 22.31 4.12198 22.5178 4.12917H22.5644C24.5458 4.21673 26.0683 4.45964 27.3393 5.2943C28.1401 5.81967 28.8293 6.49474 29.3659 7.2842C30.0339 8.26432 30.3277 9.39132 30.4689 10.7528C30.6073 12.0845 30.6073 13.7524 30.6073 15.8652V15.9853C30.6073 18.098 30.6073 19.7673 30.4689 21.0977C30.3277 22.4592 30.0339 23.5862 29.3659 24.5677C28.8263 25.3566 28.1379 26.0325 27.3393 26.5576C26.3465 27.2087 25.2068 27.4968 23.8256 27.6338C22.4726 27.7693 20.7764 27.7693 18.6213 27.7693H12.2293C10.0742 27.7693 8.37802 27.7693 7.02506 27.6338C5.64385 27.4968 4.50414 27.2101 3.5113 26.5576C2.71258 26.0321 2.02416 25.3556 1.48468 24.5663C0.816672 23.5862 0.522918 22.4592 0.38169 21.0977C0.243286 19.7673 0.243286 18.098 0.243286 15.9853V15.8652C0.243286 13.7524 0.243286 12.0845 0.38169 10.7528C0.522918 9.39132 0.816672 8.26432 1.48468 7.2842C2.02416 6.49483 2.71258 5.8184 3.5113 5.29288C4.78236 4.45964 6.3048 4.21673 8.28623 4.13058L8.31023 4.12917H8.33283C8.54066 4.12198 8.74003 4.04509 8.89885 3.91085C9.05768 3.77662 9.16673 3.59285 9.20845 3.38913ZM13.1176 2.34828C12.2138 2.34828 11.4554 2.97392 11.2845 3.8114C11.0091 5.16719 9.80584 6.23488 8.35825 6.24759C6.4545 6.33232 5.43483 6.56535 4.6722 7.0653C4.10651 7.43804 3.61869 7.91722 3.23591 8.47616C2.84612 9.04814 2.61168 9.78111 2.4874 10.9717C2.36312 12.1806 2.36171 13.7397 2.36171 15.9259C2.36171 18.1122 2.36171 19.6699 2.48881 20.8788C2.61168 22.0694 2.84612 22.8023 3.23732 23.3757C3.61581 23.9322 4.10305 24.4123 4.67361 24.7866C5.26253 25.1721 6.01669 25.4052 7.23549 25.5266C8.46982 25.6495 10.0601 25.6509 12.2872 25.6509H18.5634C20.7891 25.6509 22.3794 25.6509 23.6151 25.5266C24.8339 25.4052 25.5881 25.1736 26.177 24.7866C26.7476 24.4123 27.2362 23.9322 27.6147 23.3743C28.0045 22.8023 28.2389 22.0694 28.3632 20.8788C28.4875 19.6699 28.4889 18.1107 28.4889 15.9259C28.4889 13.7411 28.4889 12.1806 28.3618 10.9717C28.2389 9.78111 28.0045 9.04814 27.6133 8.47616C27.2306 7.91671 26.7428 7.43704 26.177 7.06389C25.4172 6.56535 24.3975 6.33232 22.4909 6.24759C21.0448 6.23346 19.8415 5.1686 19.5661 3.8114C19.4757 3.39375 19.244 3.02009 18.91 2.75352C18.576 2.48695 18.1603 2.34381 17.733 2.34828H13.1176ZM15.4253 12.2342C14.5825 12.2342 13.7743 12.569 13.1784 13.165C12.5825 13.7609 12.2477 14.5691 12.2477 15.4119C12.2477 16.2546 12.5825 17.0629 13.1784 17.6588C13.7743 18.2547 14.5825 18.5895 15.4253 18.5895C16.2681 18.5895 17.0763 18.2547 17.6722 17.6588C18.2682 17.0629 18.6029 16.2546 18.6029 15.4119C18.6029 14.5691 18.2682 13.7609 17.6722 13.165C17.0763 12.569 16.2681 12.2342 15.4253 12.2342ZM10.1293 15.4119C10.1293 14.0073 10.6872 12.6602 11.6804 11.667C12.6736 10.6738 14.0207 10.1158 15.4253 10.1158C16.8299 10.1158 18.177 10.6738 19.1702 11.667C20.1634 12.6602 20.7214 14.0073 20.7214 15.4119C20.7214 16.8165 20.1634 18.1635 19.1702 19.1568C18.177 20.15 16.8299 20.7079 15.4253 20.7079C14.0207 20.7079 12.6736 20.15 11.6804 19.1568C10.6872 18.1635 10.1293 16.8165 10.1293 15.4119ZM22.8398 11.175C22.8398 10.8941 22.9514 10.6247 23.15 10.4261C23.3487 10.2274 23.6181 10.1158 23.899 10.1158H25.3113C25.5922 10.1158 25.8616 10.2274 26.0602 10.4261C26.2589 10.6247 26.3705 10.8941 26.3705 11.175C26.3705 11.456 26.2589 11.7254 26.0602 11.924C25.8616 12.1226 25.5922 12.2342 25.3113 12.2342H23.899C23.6181 12.2342 23.3487 12.1226 23.15 11.924C22.9514 11.7254 22.8398 11.456 22.8398 11.175Z" fill="#121212"/>
</svg>
