<svg width="36" height="34" viewBox="0 0 36 34" fill="none" xmlns="http://www.w3.org/2000/svg">
<path d="M34.7167 17H12.6373M4.8438 17H1.65564M4.8438 17C4.8438 15.9668 5.25425 14.9759 5.98486 14.2453C6.71547 13.5147 7.7064 13.1042 8.73964 13.1042C9.77288 13.1042 10.7638 13.5147 11.4944 14.2453C12.225 14.9759 12.6355 15.9668 12.6355 17C12.6355 18.0333 12.225 19.0242 11.4944 19.7548C10.7638 20.4854 9.77288 20.8959 8.73964 20.8959C7.7064 20.8959 6.71547 20.4854 5.98486 19.7548C5.25425 19.0242 4.8438 18.0333 4.8438 17ZM34.7167 28.8073H24.4445M24.4445 28.8073C24.4445 29.8408 24.0331 30.8328 23.3023 31.5636C22.5715 32.2944 21.5804 32.7049 20.5469 32.7049C19.5137 32.7049 18.5227 32.2927 17.7921 31.5621C17.0615 30.8315 16.6511 29.8405 16.6511 28.8073M24.4445 28.8073C24.4445 27.7738 24.0331 26.7836 23.3023 26.0528C22.5715 25.322 21.5804 24.9115 20.5469 24.9115C19.5137 24.9115 18.5227 25.3219 17.7921 26.0525C17.0615 26.7831 16.6511 27.7741 16.6511 28.8073M16.6511 28.8073H1.65564M34.7167 5.19278H29.1678M21.3743 5.19278H1.65564M21.3743 5.19278C21.3743 4.15954 21.7848 3.16861 22.5154 2.438C23.246 1.70739 24.2369 1.29694 25.2702 1.29694C25.7818 1.29694 26.2884 1.39771 26.761 1.59349C27.2337 1.78927 27.6632 2.07624 28.0249 2.438C28.3867 2.79976 28.6737 3.22924 28.8694 3.7019C29.0652 4.17457 29.166 4.68117 29.166 5.19278C29.166 5.70439 29.0652 6.21099 28.8694 6.68365C28.6737 7.15632 28.3867 7.58579 28.0249 7.94755C27.6632 8.30932 27.2337 8.59628 26.761 8.79207C26.2884 8.98785 25.7818 9.08862 25.2702 9.08862C24.2369 9.08862 23.246 8.67817 22.5154 7.94755C21.7848 7.21694 21.3743 6.22602 21.3743 5.19278Z" stroke="#121212" stroke-width="2.11842" stroke-miterlimit="10" stroke-linecap="round"/>
</svg>
